<svg width="40" height="40" viewBox="0 0 40 40" fill="none" xmlns="http://www.w3.org/2000/svg">
<circle cx="20" cy="20" r="20" fill="#F4F4F4"/>
<path d="M20 12C21.1 12 22 12.9 22 14C22 15.1 21.1 16 20 16C18.9 16 18 15.1 18 14C18 12.9 18.9 12 20 12ZM20 21C22.7 21 25.8 22.29 26 23V24H14V23.01C14.2 22.29 17.3 21 20 21ZM20 10C17.79 10 16 11.79 16 14C16 16.21 17.79 18 20 18C22.21 18 24 16.21 24 14C24 11.79 22.21 10 20 10ZM20 19C17.33 19 12 20.34 12 23V26H28V23C28 20.34 22.67 19 20 19Z" fill="#CFCFCF"/>
</svg>
